<mxfile host="app.diagrams.net" modified="2021-01-07T12:48:40.493Z" agent="5.0 (Macintosh; Intel Mac OS X 10_14_5) AppleWebKit/537.36 (KHTML, like Gecko) Chrome/87.0.4280.88 Safari/537.36" etag="itKV4aAGCHkttC2_hTCV" version="14.0.1" type="github">
  <diagram id="iBlFuahF-E-lqrcOFv3u" name="第 1 页">
    <mxGraphModel dx="1018" dy="668" grid="1" gridSize="10" guides="1" tooltips="1" connect="1" arrows="1" fold="1" page="1" pageScale="1" pageWidth="827" pageHeight="1169" math="0" shadow="0">
      <root>
        <mxCell id="0" />
        <mxCell id="1" parent="0" />
        <mxCell id="7yFpxTUW7a1SqSxpWuzq-1" value="淘宝" style="rounded=1;whiteSpace=wrap;html=1;" vertex="1" parent="1">
          <mxGeometry x="50" y="100" width="120" height="30" as="geometry" />
        </mxCell>
        <mxCell id="7yFpxTUW7a1SqSxpWuzq-2" value="盒马APP" style="rounded=1;whiteSpace=wrap;html=1;" vertex="1" parent="1">
          <mxGeometry x="60" y="310" width="120" height="30" as="geometry" />
        </mxCell>
        <mxCell id="7yFpxTUW7a1SqSxpWuzq-3" value="风控&lt;br&gt;RMB" style="rounded=1;whiteSpace=wrap;html=1;" vertex="1" parent="1">
          <mxGeometry x="280" y="85" width="90" height="285" as="geometry" />
        </mxCell>
        <mxCell id="7yFpxTUW7a1SqSxpWuzq-4" value="" style="rounded=1;whiteSpace=wrap;html=1;" vertex="1" parent="1">
          <mxGeometry x="470" y="47.5" width="60" height="360" as="geometry" />
        </mxCell>
        <mxCell id="7yFpxTUW7a1SqSxpWuzq-5" value="Cart" style="rounded=1;whiteSpace=wrap;html=1;" vertex="1" parent="1">
          <mxGeometry x="720" y="220" width="120" height="60" as="geometry" />
        </mxCell>
        <mxCell id="7yFpxTUW7a1SqSxpWuzq-6" value="Buy2&lt;br&gt;订单中台&lt;br&gt;共享" style="rounded=1;whiteSpace=wrap;html=1;" vertex="1" parent="1">
          <mxGeometry x="970" y="220" width="120" height="60" as="geometry" />
        </mxCell>
        <mxCell id="7yFpxTUW7a1SqSxpWuzq-7" value="TMF&lt;br&gt;&lt;br&gt;业务包&lt;br&gt;" style="rounded=1;whiteSpace=wrap;html=1;" vertex="1" parent="1">
          <mxGeometry x="1130" y="100" width="60" height="320" as="geometry" />
        </mxCell>
        <mxCell id="7yFpxTUW7a1SqSxpWuzq-8" value="" style="endArrow=classic;html=1;exitX=1;exitY=0.5;exitDx=0;exitDy=0;entryX=0.017;entryY=0.475;entryDx=0;entryDy=0;entryPerimeter=0;" edge="1" parent="1" source="7yFpxTUW7a1SqSxpWuzq-6" target="7yFpxTUW7a1SqSxpWuzq-7">
          <mxGeometry width="50" height="50" relative="1" as="geometry">
            <mxPoint x="1090" y="280" as="sourcePoint" />
            <mxPoint x="1140" y="230" as="targetPoint" />
          </mxGeometry>
        </mxCell>
        <mxCell id="7yFpxTUW7a1SqSxpWuzq-9" value="协议数据" style="endArrow=classic;html=1;exitX=1;exitY=0.383;exitDx=0;exitDy=0;exitPerimeter=0;entryX=-0.033;entryY=0.4;entryDx=0;entryDy=0;entryPerimeter=0;" edge="1" parent="1" source="7yFpxTUW7a1SqSxpWuzq-5" target="7yFpxTUW7a1SqSxpWuzq-6">
          <mxGeometry width="50" height="50" relative="1" as="geometry">
            <mxPoint x="820" y="170" as="sourcePoint" />
            <mxPoint x="870" y="120" as="targetPoint" />
          </mxGeometry>
        </mxCell>
        <mxCell id="7yFpxTUW7a1SqSxpWuzq-10" value="" style="endArrow=classic;html=1;exitX=0;exitY=0.75;exitDx=0;exitDy=0;entryX=1;entryY=0.75;entryDx=0;entryDy=0;" edge="1" parent="1" source="7yFpxTUW7a1SqSxpWuzq-6" target="7yFpxTUW7a1SqSxpWuzq-5">
          <mxGeometry width="50" height="50" relative="1" as="geometry">
            <mxPoint x="920" y="390" as="sourcePoint" />
            <mxPoint x="970" y="340" as="targetPoint" />
          </mxGeometry>
        </mxCell>
        <mxCell id="7yFpxTUW7a1SqSxpWuzq-11" value="返回订单生成结果" style="edgeLabel;html=1;align=center;verticalAlign=middle;resizable=0;points=[];" vertex="1" connectable="0" parent="7yFpxTUW7a1SqSxpWuzq-10">
          <mxGeometry x="0.1385" relative="1" as="geometry">
            <mxPoint as="offset" />
          </mxGeometry>
        </mxCell>
      </root>
    </mxGraphModel>
  </diagram>
</mxfile>
